<svg xmlns="http://www.w3.org/2000/svg" width="38" height="38" viewBox="0 0 38 38">
  <g id="Group_161" data-name="Group 161" transform="translate(-1416 -4812)">
    <rect id="Rectangle_82" data-name="Rectangle 82" width="38" height="38" transform="translate(1416 4812)" fill="#0324e5"/>
    <g id="email" transform="translate(1423.108 4822.506)">
      <g id="Group_119" data-name="Group 119" transform="translate(0.849 0)">
        <g id="Group_118" data-name="Group 118" transform="translate(0 0)">
          <path id="Path_4568" data-name="Path 4568" d="M39.152,68.267H17.067l11.042,9.1,11.167-9.07A.768.768,0,0,0,39.152,68.267Z" transform="translate(-17.067 -68.267)" fill="#fff"/>
        </g>
      </g>
      <g id="Group_121" data-name="Group 121" transform="translate(0 1.5)">
        <g id="Group_120" data-name="Group 120" transform="translate(0 0)">
          <path id="Path_4569" data-name="Path 4569" d="M12.428,107.758a.849.849,0,0,1-1.076,0L0,98.406v14.639a.849.849,0,0,0,.849.849H22.934a.849.849,0,0,0,.849-.849V98.532Z" transform="translate(0 -98.406)" fill="#fff"/>
        </g>
      </g>
    </g>
  </g>
</svg>
