<svg id="Capa_1" enable-background="new 0 0 512 512" height="512" viewBox="0 0 512 512" width="512" xmlns="http://www.w3.org/2000/svg"><g><g><path d="m497 0h-482c-8.284 0-15 6.716-15 15v482c0 8.284 6.716 15 15 15h482c8.284 0 15-6.716 15-15v-482c0-8.284-6.716-15-15-15z" fill="#edf5ff"/><path d="m497 0h-241v512h241c8.284 0 15-6.716 15-15v-482c0-8.284-6.716-15-15-15z" fill="#d7e9ff"/></g><path d="m225.629 361.746h-45.004v-211.492h45.004c10.553 0 20.747 1.561 30.371 4.452l16.22-43.706-16.22-48.64c-9.901-1.547-20.043-2.356-30.371-2.356h-120.254c-8.284 0-15 6.716-15 15v361.992c0 8.284 6.716 15 15 15h120.254c10.328 0 20.47-.809 30.371-2.356l24.122-58.543-24.122-33.803c-9.624 2.891-19.818 4.452-30.371 4.452z" fill="#7ed7f5"/><path d="m421.625 256c0-97.745-71.924-179.001-165.625-193.64v92.346c43.552 13.082 75.375 53.538 75.375 101.294s-31.823 88.212-75.375 101.294v92.346c93.701-14.639 165.625-95.895 165.625-193.64z" fill="#2189db"/></g></svg>