<svg xmlns="http://www.w3.org/2000/svg" xmlns:xlink="http://www.w3.org/1999/xlink" width="38" height="38" viewBox="0 0 38 38">
  <defs>
    <clipPath id="clip-path">
      <rect width="38" height="38" fill="none"/>
    </clipPath>
  </defs>
  <g id="Group_160" data-name="Group 160" transform="translate(-1416 -4759)">
    <g id="Repeat_Grid_1" data-name="Repeat Grid 1" transform="translate(1416 4759)" clip-path="url(#clip-path)">
      <g transform="translate(-1416 -4759)">
        <rect id="Rectangle_81" data-name="Rectangle 81" width="38" height="38" transform="translate(1416 4759)" fill="#0324e5"/>
      </g>
    </g>
    <g id="pin" transform="translate(1342.407 4766.61)">
      <g id="Group_122" data-name="Group 122" transform="translate(85.333)">
        <path id="Path_4570" data-name="Path 4570" d="M92.593,0A7.261,7.261,0,0,0,86.2,10.71L92.2,21.545a.454.454,0,0,0,.794,0l5.993-10.839A7.261,7.261,0,0,0,92.593,0Zm0,10.89a3.63,3.63,0,1,1,3.63-3.63A3.634,3.634,0,0,1,92.593,10.89Z" transform="translate(-85.333)" fill="#fff"/>
      </g>
    </g>
  </g>
</svg>
