<svg xmlns="http://www.w3.org/2000/svg" width="91.978" height="79.996" viewBox="0 0 91.978 79.996">
  <g id="Group_16" data-name="Group 16" transform="translate(-65.228 -95.065)">
    <path id="Path_267" data-name="Path 267" d="M139.63,95.065H82.8l-17.575,24.7,45.987,55.3v0l45.989-55.294Z" fill="#76bfca"/>
    <g id="Group_15" data-name="Group 15">
      <path id="Path_268" data-name="Path 268" d="M82.8,95.065l-17.575,24.7H97.009Z" fill="#04a5ed"/>
      <path id="Path_269" data-name="Path 269" d="M111.215,95.065H82.8l14.206,24.7Z" fill="#14cff7"/>
      <path id="Path_270" data-name="Path 270" d="M65.228,119.764l45.987,55.3-14.206-55.3Z" fill="#0224e5"/>
      <path id="Path_271" data-name="Path 271" d="M157.205,119.764l-17.575-24.7h0l-14.205,24.7Z" fill="#04a5ed"/>
      <path id="Path_272" data-name="Path 272" d="M111.216,95.065h0l-14.206,24.7h28.414Z" fill="#0188e5"/>
      <path id="Path_273" data-name="Path 273" d="M139.628,95.065H111.216l14.207,24.7Z" fill="#14cff7"/>
      <path id="Path_274" data-name="Path 274" d="M111.215,119.764H97.009l14.206,55.3v0l14.207-55.294Z" fill="#0260e5"/>
      <path id="Path_275" data-name="Path 275" d="M125.423,119.764l-14.207,55.294,45.989-55.294Z" fill="#0224e5"/>
    </g>
  </g>
</svg>
