<svg xmlns="http://www.w3.org/2000/svg" width="76.086" height="74.484" viewBox="0 0 76.086 74.484">
  <g id="Group_23" data-name="Group 23" transform="translate(-743.994 -161.881)">
    <path id="Path_282" data-name="Path 282" d="M791.968,208.921l1.923-4.564s10.442-4.028,10.442-4.578V191.6c.005-.56-10.463-4.281-10.463-4.281l-1.925-4.564s4.465-10.077,4.078-10.464l-5.914-5.776c-.411-.4-10.5,4.2-10.5,4.2l-13.324,25.15Z" transform="translate(15.747 3.258)" fill="#0260e5"/>
    <path id="Path_283" data-name="Path 283" d="M752.95,196.81s-4.469,10.082-4.078,10.469l5.917,5.784c.4.391,10.488-4.213,10.488-4.213l4.656,1.894s4.109,10.2,4.672,10.2h8.352c.575,0,4.385-10.241,4.385-10.241l4.651-1.885s10.283,4.376,10.683,4l5.8-5.68-4.19-10.379L778.61,183.708Z" transform="translate(3.428 15.415)" fill="#0224e5"/>
    <path id="Path_284" data-name="Path 284" d="M757.963,166.654l-5.909,5.791c-.409.4,4.295,10.277,4.295,10.277l-1.916,4.564s-10.439,4.013-10.439,4.562v8.183c0,.565,10.463,4.289,10.463,4.289l1.921,4.551,25.66-13.1-13.382-25.114S758.359,166.276,757.963,166.654Z" transform="translate(0 3.354)" fill="#04a5ed"/>
    <path id="Path_285" data-name="Path 285" d="M785.154,173.973l-4.651-1.879s-4.121-10.214-4.677-10.214h-8.352c-.578,0-4.378,10.243-4.378,10.243l-4.648,1.885,13.382,25.114Z" transform="translate(10.208 0)" fill="#14cff7"/>
  </g>
</svg>
