<svg xmlns="http://www.w3.org/2000/svg" width="631.128" height="687.024" viewBox="0 0 631.128 687.024">
  <g id="Group_160" data-name="Group 160" transform="translate(-1288.872 -4018)">
    <g id="Group_101" data-name="Group 101" transform="translate(1544.895 5570.58) rotate(-90)">
      <path id="Path_243" data-name="Path 243" d="M865.555-41.407V196.781L1046.291,89.057Z" transform="translate(0 178.324)" fill="#0396eb" style="isolation: isolate"/>
      <path id="Path_244" data-name="Path 244" d="M865.555,98.612h337.533L1046.291-9.111Z" transform="translate(0 276.493)" fill="#0188e5" style="isolation: isolate"/>
      <path id="Path_245" data-name="Path 245" d="M865.555,136.917V-100.074l124.48,117.3Z" transform="translate(0 0)" fill="#52f5fb" style="isolation: isolate"/>
      <path id="Path_246" data-name="Path 246" d="M990.036-71.037l56.256,250.157L865.555,48.655Z" transform="translate(0 88.262)" fill="#14cff7" style="isolation: isolate"/>
      <path id="Path_247" data-name="Path 247" d="M949.111,98.612H1175.33L1025.6-19.882Z" transform="translate(253.977 276.493)" fill="#0224e5" style="isolation: isolate"/>
      <path id="Path_248" data-name="Path 248" d="M1143.654-19.813,910.3-9.111l156.8,107.723Z" transform="translate(135.995 276.493)" fill="#0260e5" style="isolation: isolate"/>
      <path id="Path_249" data-name="Path 249" d="M896.37-71.037,1186,168.435,952.626,179.12Z" transform="translate(93.665 88.262)" fill="#04a5ed" style="isolation: isolate"/>
    </g>
    <path id="Path_4556" data-name="Path 4556" d="M198.767,1460.824v-62.577l37.693,55.909Z" transform="translate(-59.108 4903.791) rotate(-90)" fill="#0396eb"/>
    <path id="Path_4555" data-name="Path 4555" d="M226.9,1363.881l17.284-22.4-24.645-17.6Z" transform="translate(-35 4903.791) rotate(-90)" fill="#52f5fb"/>
    <path id="Path_4558" data-name="Path 4558" d="M856.593,1835.777v47.19l28.211-23.082Z" transform="matrix(0.259, -0.966, 0.966, 0.259, -186.637, 4397.522)" fill="#0224e5"/>
  </g>
</svg>
